<?xml version="1.0" encoding="utf-8"?>
<!-- Generated by IcoMoon.io -->
<!DOCTYPE svg PUBLIC "-//W3C//DTD SVG 1.1//EN" "http://www.w3.org/Graphics/SVG/1.1/DTD/svg11.dtd">
<svg version="1.1" xmlns="http://www.w3.org/2000/svg" xmlns:xlink="http://www.w3.org/1999/xlink" width="55" height="32" viewBox="0 0 55 32">
<path fill="rgb(255, 0, 74)" d="M4.629 16.183c0.829 0 0.937 0.486 0.937 0.834 0 0.303-0.046 0.606-0.091 0.914-0.051 0.303-0.097 0.623-0.097 0.926 0 1.137 0.697 1.549 1.64 1.549h2.583c0.926 0 1.64-0.406 1.64-1.549 0-0.303-0.046-0.623-0.091-0.926-0.051-0.303-0.097-0.606-0.097-0.914 0-0.349 0.114-0.834 0.914-0.834l0.029-0.554c-0.829 0-0.943-0.434-0.943-0.823 0-0.309 0.046-0.623 0.091-0.931 0.051-0.309 0.097-0.611 0.097-0.92 0-1.023-0.691-1.469-1.651-1.469h-2.577c-0.96 0-1.64 0.44-1.64 1.469 0 0.309 0.046 0.611 0.091 0.92 0.051 0.309 0.097 0.623 0.097 0.931 0 0.389-0.114 0.823-0.914 0.823l-0.017 0.554zM7.051 19.777h-0.023l2.52-0.503v-6.629l-1.96-0.537h1.977c0.657 0.011 0.891 0.354 0.891 0.954 0 0.257-0.046 0.52-0.080 0.789-0.029 0.28-0.074 0.543-0.074 0.846 0 0.709 0.309 1.063 0.794 1.194v0.023c-0.486 0.12-0.794 0.497-0.794 1.217 0 0.303 0.046 0.583 0.086 0.857 0.023 0.28 0.069 0.543 0.069 0.811 0 0.629-0.269 0.971-0.903 0.983h-2.503zM8.88 16.28c0-0.114 0.091-0.206 0.206-0.206s0.206 0.091 0.206 0.206c0 0.114-0.091 0.206-0.206 0.206s-0.206-0.091-0.206-0.206z"></path>
<path fill="rgb(170, 170, 170)" d="M15.571 16.029h0.674c0.874 0 1.6 0.337 1.6 1.154 0 0.869-0.766 1.16-1.6 1.16-0.286 0-0.52-0.006-0.674-0.034v-2.28zM15.571 13.314c0.131-0.029 0.349-0.057 0.72-0.057 0.823 0 1.383 0.297 1.383 1.057 0 0.623-0.503 1.086-1.366 1.086h-0.737v-2.086zM14.771 18.903c0.269 0.040 0.691 0.074 1.251 0.074 1.011 0 1.714-0.183 2.137-0.583 0.303-0.291 0.503-0.686 0.503-1.2 0-0.886-0.663-1.371-1.251-1.526v-0.017c0.68-0.251 1.080-0.794 1.080-1.423 0-0.509-0.194-0.891-0.52-1.137-0.389-0.32-0.914-0.463-1.726-0.463-0.571 0-1.126 0.057-1.48 0.131v6.143z"></path>
<path fill="rgb(170, 170, 170)" d="M22.137 17.48c0 0.023-0.017 0.109-0.046 0.183-0.131 0.349-0.509 0.686-1.103 0.686-0.423 0-0.783-0.229-0.783-0.709 0-0.794 1.023-0.943 1.926-0.92v0.76zM23.023 18.96c-0.057-0.297-0.074-0.674-0.074-1.051v-1.709c0-0.903-0.343-1.863-1.749-1.863-0.571 0-1.12 0.166-1.486 0.417l0.183 0.543c0.314-0.2 0.754-0.331 1.183-0.331 0.931 0 1.034 0.657 1.034 1.023v0.091c-1.76-0.011-2.726 0.651-2.726 1.714 0 0.514 0.463 1.177 1.377 1.177 0.651 0 1.137-0.331 1.394-0.691h0.029l0.069 0.674h0.766z"></path>
<path fill="rgb(170, 170, 170)" d="M27.223 18.114c-0.234 0.103-0.537 0.223-1 0.223-0.891 0-1.554-0.634-1.554-1.669 0-0.931 0.554-1.691 1.583-1.691 0.446 0 0.749 0.103 0.943 0.211l0.183-0.629c-0.223-0.109-0.646-0.234-1.131-0.234-1.463 0-2.406 1-2.406 2.377 0 1.366 0.88 2.28 2.229 2.28 0.6 0 1.074-0.149 1.286-0.257l-0.131-0.611z"></path>
<path fill="rgb(170, 170, 170)" d="M29.114 12.297h-0.806v6.663h0.806v-1.731l0.417-0.474 1.543 2.206h0.989l-1.971-2.714 1.731-1.891h-0.983l-1.314 1.589c-0.131 0.16-0.286 0.36-0.4 0.526h-0.017v-4.171z"></path>
<path fill="rgb(170, 170, 170)" d="M35.68 17.057c0 0.131-0.011 0.246-0.040 0.354-0.154 0.56-0.663 0.914-1.217 0.914-0.897 0-1.354-0.743-1.354-1.646 0-0.983 0.509-1.714 1.371-1.714 0.623 0 1.080 0.423 1.2 0.937 0.029 0.103 0.040 0.24 0.040 0.343v0.811zM35.68 12.297v2.72h-0.023c-0.206-0.36-0.68-0.686-1.383-0.686-1.114 0-2.046 0.914-2.034 2.394 0 1.349 0.834 2.263 1.937 2.263 0.749 0 1.303-0.377 1.56-0.88h0.017l0.034 0.846h0.731c-0.029-0.309-0.040-0.766-0.040-1.171v-5.491h-0.8z"></path>
<path fill="rgb(170, 170, 170)" d="M39.617 14.971c0.983 0 1.366 0.937 1.366 1.68 0 0.983-0.594 1.697-1.383 1.697-0.811 0-1.383-0.72-1.383-1.68-0.006-0.834 0.417-1.697 1.4-1.697zM39.634 14.337c-1.263 0-2.246 0.891-2.246 2.354 0 1.383 0.937 2.286 2.171 2.286 1.103 0 2.257-0.743 2.257-2.354 0-1.337-0.874-2.286-2.183-2.286z"></path>
<path fill="rgb(170, 170, 170)" d="M44.76 14.971c0.983 0 1.366 0.937 1.366 1.68 0 0.983-0.594 1.697-1.383 1.697-0.811 0-1.383-0.72-1.383-1.68-0.006-0.834 0.417-1.697 1.4-1.697zM44.777 14.337c-1.263 0-2.246 0.891-2.246 2.354 0 1.383 0.937 2.286 2.171 2.286 1.103 0 2.257-0.743 2.257-2.354 0-1.337-0.874-2.286-2.183-2.286z"></path>
<path fill="rgb(170, 170, 170)" d="M48.029 18.96h0.806v-2.446c0-0.143 0.017-0.274 0.040-0.389 0.109-0.623 0.52-1.069 1.091-1.069 0.114 0 0.194 0.011 0.28 0.029v-0.737c-0.074 0.051-0.137 0.040-0.229 0.040-0.549 0-1.034 0.326-1.24 0.88h-0.034l-0.029-0.926h-0.714c0.029 0.429 0.040 0.897 0.040 1.434v3.183z"></path>
</svg>
