<?xml version="1.0" encoding="utf-8"?>
<!-- Generated by IcoMoon.io -->
<!DOCTYPE svg PUBLIC "-//W3C//DTD SVG 1.1//EN" "http://www.w3.org/Graphics/SVG/1.1/DTD/svg11.dtd">
<svg version="1.1" xmlns="http://www.w3.org/2000/svg" xmlns:xlink="http://www.w3.org/1999/xlink" width="26" height="32" viewBox="0 0 26 32">
<path fill="#ff004a" d="M3.62 16.587c2.053 0 2.329 1.208 2.329 2.068 0 0.752-0.117 1.504-0.225 2.272-0.129 0.752-0.24 1.546-0.24 2.299 0 2.82 1.729 3.839 4.070 3.839h6.407c2.299 0 4.070-1.004 4.070-3.839 0-0.752-0.117-1.546-0.225-2.299-0.129-0.752-0.24-1.504-0.24-2.272 0-0.869 0.282-2.068 2.272-2.068l0.072-1.373c-2.053 0-2.335-1.076-2.335-2.038 0-0.767 0.117-1.546 0.225-2.314 0.129-0.767 0.24-1.519 0.24-2.284 0-2.541-1.714-3.647-4.1-3.647h-6.392c-2.379 0-4.070 1.091-4.070 3.644 0 0.767 0.117 1.519 0.225 2.284 0.129 0.767 0.24 1.546 0.24 2.314 0 0.962-0.282 2.038-2.272 2.038l-0.051 1.376zM9.635 25.503h-0.057l6.254-1.25v-16.435l-4.861-1.331h4.897c1.627 0.030 2.212 0.881 2.212 2.364 0 0.635-0.117 1.286-0.195 1.96-0.072 0.695-0.18 1.346-0.18 2.098 0 1.756 0.767 2.64 1.975 2.964v0.057c-1.208 0.297-1.975 1.238-1.975 3.024 0 0.752 0.117 1.447 0.21 2.125 0.057 0.695 0.174 1.346 0.174 2.011 0 1.561-0.665 2.406-2.242 2.436h-6.209l-0.003-0.024zM14.169 16.833c0-0.282 0.225-0.512 0.512-0.512s0.512 0.225 0.512 0.512-0.225 0.512-0.512 0.512-0.512-0.231-0.512-0.512z"></path>
</svg>
